<?xml version="1.0" standalone="no"?>
<!DOCTYPE svg PUBLIC "-//W3C//DTD SVG 20010904//EN"
 "http://www.w3.org/TR/2001/REC-SVG-20010904/DTD/svg10.dtd">
<svg version="1.0" xmlns="http://www.w3.org/2000/svg"
 width="1024.000000pt" height="1024.000000pt" viewBox="0 0 1024.000000 1024.000000"
 preserveAspectRatio="xMidYMid meet">
<metadata>
Created by potrace 1.11, written by Peter Selinger 2001-2013
</metadata>
<g transform="translate(0.000000,1024.000000) scale(0.100000,-0.100000)"
fill="#000000" stroke="none">
<path d="M2639 10236 c-2 -2 -76 -6 -164 -10 -88 -4 -176 -8 -195 -10 -19 -2
-64 -7 -100 -11 -36 -3 -85 -8 -110 -11 -190 -20 -510 -94 -655 -151 -221 -87
-466 -237 -634 -388 -69 -61 -200 -196 -230 -235 -14 -19 -34 -44 -44 -55 -11
-11 -55 -74 -99 -140 -96 -142 -194 -340 -242 -485 -38 -117 -89 -342 -106
-466 -6 -44 -12 -89 -14 -100 -3 -17 -9 -75 -22 -219 -16 -188 -19 -622 -19
-2835 0 -2182 4 -2740 19 -2840 2 -14 7 -59 11 -100 15 -174 48 -367 90 -533
162 -645 654 -1198 1291 -1451 134 -53 393 -115 590 -142 27 -3 57 -8 68 -10
10 -2 62 -6 115 -10 53 -3 99 -8 102 -10 25 -15 664 -19 2829 -19 2179 0 2739
4 2841 20 13 2 58 6 99 10 352 31 662 108 904 223 437 209 798 569 1012 1007
114 235 191 529 224 860 6 61 13 128 15 150 17 157 20 649 20 2850 0 2189 -4
2718 -20 2840 -2 17 -6 59 -9 95 -22 257 -92 587 -163 765 -214 542 -654 987
-1193 1208 -219 90 -559 159 -905 182 -49 4 -108 9 -130 12 -43 7 -5169 16
-5176 9z"/>
</g>
</svg>
